<svg xmlns="http://www.w3.org/2000/svg" width="300" height="300" viewBox="0 0 300 300">
  <!-- 背景に敷く柄(オリジナルの線画)。鍛冶の道具と、丸いおもち型の小さなモンスター。
       数字の読みやすさを損なわないよう、色はごく薄くしてある。 -->
  <g fill="none" stroke="#7a5c28" stroke-opacity=".13" stroke-width="2.2" stroke-linecap="round" stroke-linejoin="round">
    <!-- ハンマー -->
    <g transform="translate(58 62) rotate(-35)">
      <rect x="-4" y="-6" width="8" height="54" rx="3"/>
      <rect x="-20" y="-20" width="40" height="16" rx="3"/>
      <path d="M-14 -20 v16 M14 -20 v16"/>
    </g>
    <!-- 金床 -->
    <g transform="translate(205 70)">
      <path d="M-38 -14 H30 Q42 -14 46 -22 Q44 -4 22 -2 L14 12 H24 V20 H-24 V12 H-14 L-20 -2 Q-38 -4 -38 -14 Z"/>
      <path d="M-30 -8 H26"/>
    </g>
    <!-- 炎 -->
    <g transform="translate(66 222)">
      <path d="M0 26 C-18 26 -24 10 -16 -2 C-12 6 -6 6 -6 0 C-6 -12 2 -20 4 -28 C10 -16 22 -8 20 8 C19 20 10 26 0 26 Z"/>
      <path d="M0 20 C-7 20 -9 12 -5 7 C-2 11 2 10 2 5 C6 9 8 13 6 16 C5 19 3 20 0 20 Z"/>
    </g>
    <!-- インゴット -->
    <g transform="translate(150 158)">
      <path d="M-26 10 L-18 -8 H18 L26 10 Z"/>
      <path d="M-18 -8 L-12 -2 H12 L18 -8"/>
    </g>
    <!-- おもち型のモンスター(オリジナル) -->
    <g transform="translate(222 228)">
      <path d="M-28 16 C-30 -6 -16 -22 0 -22 C16 -22 30 -6 28 16 C27 22 20 24 0 24 C-20 24 -27 22 -28 16 Z"/>
      <path d="M-6 -21 C-4 -28 4 -28 6 -21"/>
    </g>
  </g>
  <!-- モンスターの顔と火花は塗りで -->
  <g fill="#7a5c28" fill-opacity=".14">
    <circle cx="212" cy="226" r="3"/><circle cx="232" cy="226" r="3"/>
    <path d="M216 236 Q222 240 228 236" fill="none" stroke="#7a5c28" stroke-opacity=".14" stroke-width="2" stroke-linecap="round"/>
  </g>
  <g fill="#b5480f" fill-opacity=".10">
    <ellipse cx="205" cy="233" rx="4" ry="2.5"/><ellipse cx="239" cy="233" rx="4" ry="2.5"/>
    <!-- 火花(4方向の星) -->
    <path d="M118 44 l3 9 9 3 -9 3 -3 9 -3 -9 -9 -3 9 -3 z"/>
    <path d="M252 142 l2 6 6 2 -6 2 -2 6 -2 -6 -6 -2 6 -2 z"/>
    <path d="M30 140 l2 6 6 2 -6 2 -2 6 -2 -6 -6 -2 6 -2 z"/>
    <path d="M140 268 l2.5 7 7 2.5 -7 2.5 -2.5 7 -2.5 -7 -7 -2.5 7 -2.5 z"/>
  </g>
</svg>
